<svg xmlns="http://www.w3.org/2000/svg" version="1.1" viewBox="5 169 487 139" style="max-height: 500px" width="487" height="139">
<path transform="translate(0,0)" fill="#FEFEFE" d="M0 0 C165 0 330 0 500 0 C500 165 500 330 500 500 C335 500 170 500 0 500 C0 335 0 170 0 0 Z"/>
<path transform="translate(55,185)" fill="#C1B7FE" d="M0 0 C5.72452529 3.41269777 8.04686683 8.17946978 11 14 C11.80521119 15.48314706 12.61769344 16.96237035 13.4375 18.4375 C13.84871094 19.17871094 14.25992188 19.91992188 14.68359375 20.68359375 C16.51772304 23.91100821 18.43938346 27.08262747 20.375 30.25 C21.70603453 32.50251998 22.98624249 34.76829139 24.25 37.05859375 C27.41300471 42.77733467 30.70483585 48.41917935 34 54.0625 C34.60328125 55.09955078 35.2065625 56.13660156 35.828125 57.20507812 C39.12928956 62.86370477 42.49269367 68.46669286 46 74 C50.55790543 66.47322247 54.98642252 58.87652882 59.375 51.25 C60.03185791 50.10998535 60.68871582 48.9699707 61.36547852 47.79541016 C65.92780441 39.873538 70.47545058 31.94350266 75 24 C74.0620459 24.02094727 73.1240918 24.04189453 72.15771484 24.06347656 C68.65761375 24.13189373 65.15822934 24.18191586 61.65771484 24.21972656 C60.14653264 24.23976791 58.63542728 24.26700905 57.12451172 24.30175781 C54.94479357 24.35061109 52.76610569 24.37304224 50.5859375 24.390625 C49.2767334 24.41157227 47.9675293 24.43251953 46.61865234 24.45410156 C42.38453143 23.92276538 40.2886613 22.66805615 37 20 C34.10844711 15.89586041 33.52876597 12.73277459 34.34375 7.8984375 C35.41930532 4.7870096 37.51429858 3.05070367 40 1 C40.33 0.67 40.66 0.34 41 0 C42.81422293 -0.10951877 44.63270961 -0.14909413 46.45019531 -0.16113281 C48.19771088 -0.17554413 48.19771088 -0.17554413 49.98052979 -0.19024658 C51.25023621 -0.19449646 52.51994263 -0.19874634 53.828125 -0.203125 C55.772565 -0.21167511 55.772565 -0.21167511 57.75628662 -0.22039795 C60.50696201 -0.23091921 63.25760809 -0.23675378 66.00830078 -0.24023438 C69.52677792 -0.24570682 73.04486565 -0.26970264 76.56322098 -0.29820633 C79.92234813 -0.32136249 83.28142217 -0.32328518 86.640625 -0.328125 C88.53303925 -0.3466452 88.53303925 -0.3466452 90.46368408 -0.36553955 C91.6413031 -0.36253845 92.81892212 -0.35953735 94.03222656 -0.35644531 C95.06623596 -0.36009094 96.10024536 -0.36373657 97.16558838 -0.36749268 C101.22021486 0.15820568 103.81132678 1.93429297 106.8125 4.625 C108.7577969 8.51559379 108.71470638 11.74845254 108 16 C104.62098665 24.06076142 100.01254182 31.61899799 95.5625 39.125 C94.32104034 41.23664167 93.08017518 43.34863294 91.83984375 45.4609375 C91.20546387 46.53956055 90.57108398 47.61818359 89.91748047 48.72949219 C86.79501035 54.05526372 83.70894742 59.40185772 80.625 64.75 C80.01293701 65.80872314 79.40087402 66.86744629 78.77026367 67.95825195 C75.74284107 73.20345133 72.73451794 78.45830114 69.76882935 83.73861694 C68.32483733 86.30919992 66.87534 88.87666352 65.42596436 91.44421387 C64.73315677 92.6758092 64.04334419 93.9090948 63.35675049 95.14416504 C62.39885645 96.86715903 61.43008456 98.58409163 60.4609375 100.30078125 C59.63795166 101.77285034 59.63795166 101.77285034 58.79833984 103.2746582 C56.27574336 107.09759393 53.87139745 110.5671049 49.28125 111.62890625 C47.90453125 111.59603516 47.90453125 111.59603516 46.5 111.5625 C45.12328125 111.56443359 45.12328125 111.56443359 43.71875 111.56640625 C39.29308789 110.64439331 36.7496375 108.08508 34.2175293 104.41992188 C33.67523682 103.44603516 33.13294434 102.47214844 32.57421875 101.46875 C31.9507959 100.36241211 31.32737305 99.25607422 30.68505859 98.11621094 C30.01913904 96.91084413 29.35328805 95.70543945 28.6875 94.5 C27.98369546 93.24449384 27.27875948 91.98962134 26.57275391 90.73535156 C25.10605242 88.12746905 23.64425651 85.51693005 22.18603516 82.90429688 C19.11714123 77.41332618 15.9961513 71.95225893 12.87191772 66.49264526 C11.87483972 64.74971983 10.87931561 63.00591419 9.8840332 61.26196289 C4.87693514 52.49938675 -0.19125931 43.77356492 -5.30908203 35.07519531 C-6.88457334 32.39010182 -8.44691361 29.69811079 -10 27 C-10.56275635 26.02474365 -11.1255127 25.0494873 -11.70532227 24.04467773 C-12.24987061 23.07860596 -12.79441895 22.11253418 -13.35546875 21.1171875 C-13.84684326 20.25077637 -14.33821777 19.38436523 -14.84448242 18.49169922 C-16.63766273 14.62497659 -17.09874565 11.13032125 -16 7 C-12.13426371 0.27390206 -7.34400601 -1.05446032 0 0 Z"/>
<path transform="translate(327.76171875,213.56640625)" fill="#BA55BD" d="M0 0 C1.29693535 -0.00786278 1.29693535 -0.00786278 2.62007141 -0.0158844 C4.45170011 -0.02230943 6.28337004 -0.02096137 8.11499023 -0.01245117 C10.89838753 -0.00398953 13.6796987 -0.0326156 16.46289062 -0.06445312 C18.24609314 -0.06606663 20.02929925 -0.06548476 21.8125 -0.0625 C22.63674973 -0.07373398 23.46099945 -0.08496796 24.31022644 -0.09654236 C30.9648671 -0.01757527 36.18624796 1.79988934 41.26171875 6.1796875 C41.93074219 7.01693359 41.93074219 7.01693359 42.61328125 7.87109375 C43.07476562 8.42667969 43.53625 8.98226562 44.01171875 9.5546875 C48.06730467 15.76722517 47.95097338 22.23714155 47.23828125 29.43359375 C45.72949687 34.37991781 43.17572992 38.05863775 39.23828125 41.43359375 C40.2978688 43.63427559 41.38466783 45.64959863 42.7578125 47.67578125 C44.46410045 50.85424903 44.76787533 53.29487876 45.11328125 56.87109375 C45.8246274 62.44163039 45.8246274 62.44163039 48.92578125 66.93359375 C51.23828125 69.43359375 51.23828125 69.43359375 51.23828125 72.18359375 C50.23828125 74.43359375 50.23828125 74.43359375 47.23828125 76.43359375 C44.08991547 77.00602389 42.11656637 76.98069219 39.36328125 75.265625 C34.89020269 71.64056758 32.58844775 68.55849735 31.9296875 62.6796875 C31.84363611 60.80481028 31.76030979 58.92980603 31.6796875 57.0546875 C31.16981605 54.02704375 30.35109361 52.63631301 28.23828125 50.43359375 C25.19064191 49.41771397 22.89109158 49.23554969 19.6953125 49.1171875 C18.0855957 49.0543457 18.0855957 49.0543457 16.44335938 48.99023438 C15.32380859 48.95091797 14.20425781 48.91160156 13.05078125 48.87109375 C11.91962891 48.82791016 10.78847656 48.78472656 9.62304688 48.74023438 C6.82824771 48.63410276 4.03335963 48.5320499 1.23828125 48.43359375 C1.26184692 49.5460144 1.26184692 49.5460144 1.28588867 50.6809082 C1.34818839 54.03589271 1.38725632 57.39075561 1.42578125 60.74609375 C1.46348633 62.49696289 1.46348633 62.49696289 1.50195312 64.28320312 C1.51645508 65.9605957 1.51645508 65.9605957 1.53125 67.671875 C1.54696045 68.70352783 1.5626709 69.73518066 1.57885742 70.7980957 C1.23828125 73.43359375 1.23828125 73.43359375 -0.09643555 75.26635742 C-2.73115623 77.11309538 -4.63877717 76.87972826 -7.76171875 76.43359375 C-10.72842462 74.2277558 -11.66305678 73.03995619 -12.26292419 69.35325623 C-12.26309036 68.1454097 -12.26325653 66.93756317 -12.26342773 65.69311523 C-12.27153221 64.68997284 -12.27153221 64.68997284 -12.27980042 63.66656494 C-12.29227981 61.46215177 -12.27580579 59.25904663 -12.2578125 57.0546875 C-12.25796749 55.52059358 -12.25945648 53.98649927 -12.26222229 52.45240784 C-12.26360585 49.2403122 -12.25105459 46.02866333 -12.22827148 42.81665039 C-12.19986252 38.69826757 -12.20263098 34.58062563 -12.2153616 30.46218777 C-12.22231369 27.29573734 -12.21453537 24.1294584 -12.20210457 20.96302986 C-12.19758715 19.44437378 -12.19725581 17.92569931 -12.20116997 16.40704155 C-12.20407833 14.28586902 -12.18759614 12.16572084 -12.16577148 10.04467773 C-12.1603685 8.8376268 -12.15496552 7.63057587 -12.1493988 6.38694763 C-11.76171875 3.43359375 -11.76171875 3.43359375 -10.47930908 1.5456543 C-7.35707495 -0.47584835 -3.6059078 -0.01268697 0 0 Z"/>
<path transform="translate(423.4375,212.875)" fill="#9D56E9" d="M0 0 C4.0652095 1.28375037 4.60729944 2.35358936 6.52886963 5.98654175 C8.46181734 9.98558057 10.19291334 14.05987051 11.8984375 18.16015625 C12.30027252 19.11587021 12.70210754 20.07158417 13.11611938 21.05625916 C14.39412576 24.09825883 15.66598848 27.14278065 16.9375 30.1875 C18.20005614 33.19901083 19.46386572 36.20999289 20.72796631 39.22085571 C21.54468151 41.16783666 22.36000783 43.11540085 23.17388916 45.06356812 C24.91457141 49.22643166 26.66402616 53.38304074 28.48339844 57.51220703 C28.76615631 58.15653183 29.04891418 58.80085663 29.34024048 59.46470642 C30.06766072 61.113999 30.80321001 62.7597 31.53955078 64.4050293 C32.99824798 68.28363204 33.19055999 71.04261004 32.5625 75.125 C30.5625 77.125 30.5625 77.125 27.25 77.75 C23.5625 77.125 23.5625 77.125 22.09765625 75.65234375 C18.82607013 70.65049628 17.52313525 66.00690575 15.5625 60.125 C4.6725 60.125 -6.2175 60.125 -17.4375 60.125 C-18.4275 63.095 -19.4175 66.065 -20.4375 69.125 C-21.74983216 72.14965597 -23.10264856 74.77146975 -25.4375 77.125 C-29.125 77.8125 -29.125 77.8125 -32.4375 77.125 C-34.58754396 73.89993406 -34.65352789 72.91521203 -33.99005127 69.23336792 C-32.83529557 64.82717069 -30.99210757 60.68655449 -29.2109375 56.50390625 C-28.78503326 55.4863475 -28.35912903 54.46878876 -27.9203186 53.4203949 C-26.55868197 50.17282647 -25.18565183 46.93021373 -23.8125 43.6875 C-22.91203659 41.54262144 -22.01229019 39.39744172 -21.11328125 37.25195312 C-18.96335628 32.12915197 -16.79661409 27.01374465 -14.61901855 21.90264893 C-13.5177632 19.3136919 -12.42496419 16.72130634 -11.33300781 14.12841797 C-10.71482305 12.67779111 -10.09605544 11.22741243 -9.4765625 9.77734375 C-9.20774261 9.13374405 -8.93892273 8.49014435 -8.66195679 7.82704163 C-5.36835784 0.19521301 -5.36835784 0.19521301 0 0 Z"/>
<path transform="translate(246.234130859375,213.70947265625)" fill="#D65692" d="M0 0 C1.06798325 -0.0127597 2.13596649 -0.02551941 3.23631287 -0.03866577 C4.96604088 -0.04200424 4.96604088 -0.04200424 6.73071289 -0.04541016 C7.91556778 -0.05206696 9.10042267 -0.05872375 10.32118225 -0.06558228 C12.82868902 -0.0757142 15.33622278 -0.08039913 17.84375 -0.08007812 C21.68477678 -0.08445149 25.52465511 -0.12076829 29.36547852 -0.15869141 C31.79971937 -0.16455929 34.23396569 -0.16852887 36.66821289 -0.17041016 C37.81934067 -0.18478119 38.97046844 -0.19915222 40.15647888 -0.21395874 C41.22761429 -0.20780548 42.29874969 -0.20165222 43.40234375 -0.1953125 C44.81440346 -0.19958755 44.81440346 -0.19958755 46.25498962 -0.20394897 C49.52422602 0.43987323 50.71925304 1.71455384 52.76586914 4.29052734 C53.20336914 6.85302734 53.20336914 6.85302734 52.76586914 9.29052734 C51.11383932 11.49972527 50.25580834 12.21696528 47.49755859 12.63110352 C46.63348389 12.61539307 45.76940918 12.59968262 44.87915039 12.58349609 C43.94135742 12.57382813 43.00356445 12.56416016 42.03735352 12.55419922 C41.06088867 12.5290625 40.08442383 12.50392578 39.07836914 12.47802734 C37.59626953 12.45772461 37.59626953 12.45772461 36.08422852 12.43701172 C33.64422683 12.40164938 31.20532195 12.35229767 28.76586914 12.29052734 C28.77031036 13.03555008 28.77475159 13.78057281 28.77932739 14.548172 C28.81938946 21.56682596 28.84984606 28.58544037 28.86949348 35.60417652 C28.87993396 39.21264839 28.89409787 42.82102584 28.91674805 46.42944336 C28.93846718 49.91129676 28.95043578 53.39305929 28.95562363 56.8749752 C28.96112141 58.85091018 28.97673582 60.82680856 28.99246216 62.8026886 C28.99268875 64.60421638 28.99268875 64.60421638 28.99291992 66.44213867 C28.99736115 67.50137039 29.00180237 68.56060211 29.00637817 69.65193176 C28.76586914 72.29052734 28.76586914 72.29052734 26.76586914 75.29052734 C21.25453494 76.62391465 21.25453494 76.62391465 18.76586914 76.29052734 C16.0443313 74.16005411 14.88613214 72.9802885 14.28485107 69.53167725 C14.29373352 68.47466614 14.30261597 67.41765503 14.31176758 66.32861328 C14.3120697 65.12767029 14.31237183 63.92672729 14.31268311 62.68939209 C14.33332825 61.39761047 14.35397339 60.10582886 14.37524414 58.77490234 C14.38270843 57.43541306 14.38840048 56.09591282 14.39239502 54.75640869 C14.40763701 51.23801298 14.44690496 47.72028219 14.49121094 44.20214844 C14.5321955 40.60930373 14.55041274 37.01635114 14.57055664 33.42333984 C14.61340169 26.37879768 14.68163468 19.33470602 14.76586914 12.29052734 C14.14542725 12.31147461 13.52498535 12.33242187 12.88574219 12.35400391 C10.07511596 12.4371414 7.26474818 12.48917795 4.45336914 12.54052734 C3.4769043 12.57404297 2.50043945 12.60755859 1.49438477 12.64208984 C0.5565918 12.65498047 -0.38120117 12.66787109 -1.34741211 12.68115234 C-2.64352417 12.71257324 -2.64352417 12.71257324 -3.96582031 12.74462891 C-6.23413086 12.29052734 -6.23413086 12.29052734 -8.04736328 10.46142578 C-9.23413086 8.29052734 -9.23413086 8.29052734 -9.10913086 5.16552734 C-7.59486883 0.19009496 -4.66925179 0.03784535 0 0 Z"/>
<path transform="translate(176,214)" fill="#F2596C" d="M0 0 C3.18086071 2.94988535 5.52742427 6.45200809 8 10 C8.88457011 11.22681252 9.77138485 12.45200895 10.66015625 13.67578125 C13.8405259 18.07202413 16.98984825 22.48477237 20 27 C20.66 27 21.32 27 22 27 C23.35408859 25.25467169 24.61933678 23.44018674 25.84375 21.6015625 C26.21350952 21.05140472 26.58326904 20.50124695 26.9642334 19.93441772 C28.14933181 18.16886868 29.32502457 16.39729858 30.5 14.625 C31.67652127 12.86093871 32.85496709 11.09820603 34.0357666 9.33700562 C35.10904284 7.73454538 36.176723 6.12834133 37.24414062 4.52197266 C39 2 39 2 41 0 C47.05240175 -0.55021834 47.05240175 -0.55021834 49.9375 1.125 C51.53986343 3.95270017 51.35156005 5.76791567 51 9 C49.69987325 11.64624233 47.99503645 13.94318457 46.25 16.3125 C45.76354004 17.01487793 45.27708008 17.71725586 44.77587891 18.44091797 C42.23769016 22.07486729 39.6150001 25.48912489 36.6328125 28.76953125 C27.64758853 39.13259596 26.73353703 48.59905401 27.09521484 61.84423828 C27.12566895 63.09833496 27.15612305 64.35243164 27.1875 65.64453125 C27.24292969 66.77221924 27.29835937 67.89990723 27.35546875 69.06176758 C27 72 27 72 25.14453125 74.3659668 C23 76 23 76 20.5 76.5 C17.13325643 75.82665129 16.09288508 74.70347091 14 72 C13.67626953 68.89404297 13.67626953 68.89404297 13.8828125 65.2421875 C13.92838528 63.88914321 13.96922182 62.5359329 14.00585938 61.18261719 C14.03909302 60.12657288 14.03909302 60.12657288 14.07299805 59.04919434 C14.37452365 46.4424512 13.38650181 37.34753136 4.59179688 27.64477539 C3.34100935 26.34144584 2.07224655 25.05507376 0.78417969 23.78857422 C-1.85198946 21.14591205 -4.11734134 18.27825959 -6.375 15.3125 C-7.08398438 14.44238281 -7.79296875 13.57226562 -8.5234375 12.67578125 C-10.41109243 9.25503091 -10.34294776 6.85016017 -10 3 C-7.75230723 -1.09873388 -4.22457574 -0.90031942 0 0 Z"/>
<path transform="translate(329,226)" fill="#FCF9FC" d="M0 0 C4.23023155 -0.13491171 8.45616484 -0.23410046 12.6875 -0.3125 C14.48477539 -0.3753418 14.48477539 -0.3753418 16.31835938 -0.43945312 C25.02515266 -0.56071766 25.02515266 -0.56071766 27.91259766 1.10009766 C29.26953125 2.45703125 29.26953125 2.45703125 31 5 C31.33 5.33 31.66 5.66 32 6 C32.55173228 12.2282086 32.67414601 17.69290021 29 23 C25.50663182 25.32891212 24.13992135 25.23551143 20.01953125 25.1953125 C18.27446289 25.18564453 18.27446289 25.18564453 16.49414062 25.17578125 C15.27919922 25.15902344 14.06425781 25.14226562 12.8125 25.125 C11.58595703 25.11597656 10.35941406 25.10695312 9.09570312 25.09765625 C6.06371915 25.07406104 3.03183527 25.03818967 0 25 C0 16.75 0 8.5 0 0 Z"/>
<path transform="translate(422,236)" fill="#FCF9FE" d="M0 0 C2.73530892 1.36765446 2.97576407 2.82741721 4.1640625 5.62109375 C4.56367188 6.55630859 4.96328125 7.49152344 5.375 8.45507812 C5.99375 9.93137695 5.99375 9.93137695 6.625 11.4375 C7.04523438 12.41783203 7.46546875 13.39816406 7.8984375 14.40820312 C11 21.72406402 11 21.72406402 11 24 C4.07 24 -2.86 24 -10 24 C-8.09971061 18.29913184 -6.24187175 12.97116082 -3.875 7.5 C-3.35679687 6.2934375 -2.83859375 5.086875 -2.3046875 3.84375 C-1 1 -1 1 0 0 Z"/>
<path transform="translate(142,235)" fill="#DDD1FD" d="M0 0 C0.33 0.66 0.66 1.32 1 2 C0.19555664 3.78759766 0.19555664 3.78759766 -1.08984375 5.9140625 C-1.54423828 6.67460937 -1.99863281 7.43515625 -2.46679688 8.21875 C-2.95212891 9.0128125 -3.43746094 9.806875 -3.9375 10.625 C-4.41896484 11.42679688 -4.90042969 12.22859375 -5.39648438 13.0546875 C-6.59056765 15.04088542 -7.79195201 17.02227542 -9 19 C-9.33 18.34 -9.66 17.68 -10 17 C-8.875 14.4375 -8.875 14.4375 -7 11 C-6.58878906 10.23300781 -6.17757812 9.46601563 -5.75390625 8.67578125 C-2.28675176 2.28675176 -2.28675176 2.28675176 0 0 Z"/>
<path transform="translate(153,216)" fill="#DED2FD" d="M0 0 C0.33 0.66 0.66 1.32 1 2 C-0.40895236 4.61788643 -1.86243091 7.11045672 -3.4375 9.625 C-3.87126953 10.33140625 -4.30503906 11.0378125 -4.75195312 11.765625 C-5.82748132 13.51483568 -6.91283725 15.25799654 -8 17 C-8.33 16.34 -8.66 15.68 -9 15 C-6.866266 10.02128734 -3.89225899 3.89225899 0 0 Z"/>
</svg>